<?xml version="1.0" standalone="no"?>
<!DOCTYPE svg PUBLIC "-//W3C//DTD SVG 20010904//EN"
 "http://www.w3.org/TR/2001/REC-SVG-20010904/DTD/svg10.dtd">
<svg version="1.0" xmlns="http://www.w3.org/2000/svg"
 width="387.000000pt" height="387.000000pt" viewBox="0 0 387.000000 387.000000"
 preserveAspectRatio="xMidYMid meet">

<g transform="translate(0.000000,387.000000) scale(0.100000,-0.100000)"
fill="#000000" stroke="none">
<path d="M1895 3860 c-8 -13 -207 -1291 -203 -1296 2 -2 26 4 53 12 28 9 97
18 155 21 87 5 120 2 189 -16 47 -11 86 -20 87 -18 4 4 -205 1287 -212 1298
-7 12 -61 11 -69 -1z M560 3304 c-10 -10 -11 -22 -4 -39 9 -25 755 -1053 764 -1054 3 -1
20 27 39 62 45 81 158 194 244 241 l67 38 -22 18 c-24 18 -976 704 -1018 733
-31 21 -54 22 -70 1z M2763 2963 c-268 -196 -505 -368 -525 -382 -21 -14 -37 -28 -38 -31
0 -3 28 -20 63 -39 81 -45 194 -158 241 -244 l38 -67 17 22 c96 125 745 1035
748 1049 6 23 -13 49 -37 49 -10 0 -238 -161 -507 -357z M659 2085 c-345 -56 -634 -105 -643 -108 -17 -7 -23 -62 -7 -71 11
-7 1293 -208 1297 -203 2 1 -4 25 -12 52 -9 28 -18 97 -21 155 -5 99 1 145 33
258 4 15 2 22 -7 21 -8 -1 -296 -47 -640 -104z M2555 2163 c38 -97 45 -272 15 -388 -11 -43 -19 -80 -17 -81 4 -4
1287 205 1298 212 12 7 12 61 -1 69 -5 3 -65 15 -132 25 -320 51 -1152 180
-1160 180 -6 0 -7 -8 -3 -17z M936 1154 c-208 -289 -380 -534 -383 -545 -6 -23 13 -49 36 -49 9 0
35 13 57 29 208 151 948 691 977 714 l38 29 -63 37 c-85 49 -196 161 -242 244
-21 37 -38 67 -39 67 -1 0 -172 -237 -381 -526z M2501 1607 c-45 -81 -158 -194 -244 -241 -37 -21 -67 -39 -65 -41 52
-45 1066 -765 1078 -765 28 0 45 27 34 55 -9 25 -755 1053 -764 1054 -3 1 -20
-27 -39 -62z M1680 1324 c0 -20 211 -1297 215 -1304 8 -13 62 -13 70 -1 7 12 207
1292 202 1297 -1 2 -25 -4 -52 -13 -79 -26 -302 -24 -377 3 -32 12 -58 19 -58
18z"/>
</g>
</svg>
