<?xml version="1.0" standalone="no"?>
<!DOCTYPE svg PUBLIC "-//W3C//DTD SVG 20010904//EN"
 "http://www.w3.org/TR/2001/REC-SVG-20010904/DTD/svg10.dtd">
<svg version="1.0" xmlns="http://www.w3.org/2000/svg"
 width="378.000000pt" height="362.000000pt" viewBox="0 0 378.000000 362.000000"
 preserveAspectRatio="xMidYMid meet">

<g transform="translate(0.000000,362.000000) scale(0.100000,-0.100000)"
fill="#000000" stroke="none">
<path d="M1836 3478 c-25 -79 -124 -388 -219 -688 l-174 -545 -724 -5 -724 -5
75 -56 c64 -47 1092 -800 1097 -803 1 -1 -97 -309 -218 -685 -121 -376 -218
-685 -215 -688 6 -6 -37 -37 610 435 297 216 545 391 552 388 7 -3 267 -190
579 -417 311 -226 568 -410 570 -407 2 2 -95 311 -216 687 -121 376 -219 684
-217 685 2 2 257 189 568 416 311 227 574 421 585 431 19 19 4 19 -705 19
l-725 0 -220 690 c-121 379 -223 690 -227 690 -4 0 -28 -64 -52 -142z m212
-1154 c139 -29 298 -129 387 -242 106 -134 156 -278 156 -447 0 -200 -68 -362
-211 -505 -94 -94 -172 -142 -300 -182 -98 -30 -280 -33 -380 -5 -244 67 -423
245 -501 497 -30 96 -32 270 -5 370 77 286 324 499 614 529 83 8 146 4 240
-15z"/>
</g>
</svg>
