<?xml version="1.0" standalone="no"?>
<!DOCTYPE svg PUBLIC "-//W3C//DTD SVG 20010904//EN"
 "http://www.w3.org/TR/2001/REC-SVG-20010904/DTD/svg10.dtd">
<svg version="1.0" xmlns="http://www.w3.org/2000/svg"
 width="794.000000pt" height="1123.000000pt" viewBox="0 0 794.000000 1123.000000"
 preserveAspectRatio="xMidYMid meet">

<g transform="translate(0.000000,1123.000000) scale(0.100000,-0.100000)"
fill="#000000" stroke="none">
<path d="M4445 8190 l-220 -690 -723 0 c-445 0 -721 -4 -717 -9 4 -7 579 -431
1163 -857 2 -1 -417 -1312 -436 -1363 -4 -10 -1 -13 12 -8 9 4 271 192 581
418 365 266 569 408 577 403 7 -4 266 -192 576 -417 310 -225 566 -407 568
-404 4 4 -269 865 -406 1279 l-28 87 591 433 592 433 -730 5 -729 5 -220 688
c-121 378 -223 687 -226 687 -3 0 -104 -310 -225 -690z"/>
</g>
</svg>
